# xmcd CD database file
#
# Track frame offsets:
#	150
#	25520
#	44603
#	69565
#	89000
#	104983
#	122495
#	140273
#	162500
#	183855
#	205943
#
# Disc length: 3084 seconds
#
# Revision: 0
# Processed by: cddbd v1.5PL3 Copyright (c) Steve Scherf et al.
# Submitted via: CDex 1.50beta8a
#
DISCID=9d0c0a0b
DTITLE=小堺一機 - ウィズ
DYEAR=1990
DGENRE=J-Pop
TTITLE0=With
TTITLE1=今夜だけ少年に帰りたい
TTITLE2=追憶の恋人
TTITLE3=ムーンライト・シィンギィング
TTITLE4=ストレンジャー志願
TTITLE5=アナザーデイ
TTITLE6=マヌカン・ガール
TTITLE7=夢ではナイト
TTITLE8=Joke
TTITLE9=縁は異なもの
TTITLE10=Starry Night
EXTD=YEAR: 1990
EXTT0=
EXTT1=
EXTT2=
EXTT3=
EXTT4=
EXTT5=
EXTT6=
EXTT7=
EXTT8=
EXTT9=
EXTT10=
PLAYORDER=
